<?xml version="1.0" standalone="no"?>
<!DOCTYPE svg PUBLIC "-//W3C//DTD SVG 20010904//EN"
 "http://www.w3.org/TR/2001/REC-SVG-20010904/DTD/svg10.dtd">
<svg version="1.0" xmlns="http://www.w3.org/2000/svg"
 width="822.000000pt" height="822.000000pt" viewBox="0 0 822.000000 822.000000"
 preserveAspectRatio="xMidYMid meet">
<metadata>
Created by potrace 1.15, written by Peter Selinger 2001-2017
</metadata>
<g transform="translate(0.000000,822.000000) scale(0.100000,-0.100000)"
stroke="none">
<path d="M3920 8174 c-302 -18 -556 -55 -810 -120 -1038 -267 -1924 -923
-2477 -1834 -269 -442 -452 -937 -537 -1450 -34 -208 -33 -197 -46 -455 -23
-455 29 -916 149 -1327 156 -533 386 -977 723 -1401 675 -846 1638 -1387 2688
-1512 155 -18 527 -35 775 -34 l170 1 -100 33 c-55 19 -212 70 -350 114 -272
89 -433 155 -595 246 -589 330 -933 758 -1042 1297 -20 98 -23 143 -23 338 0
235 8 296 56 463 85 291 289 515 605 662 54 26 226 89 380 140 316 105 405
145 474 214 77 77 100 190 65 326 -50 195 -154 302 -482 499 -124 74 -214 149
-233 196 -19 46 -7 115 27 158 74 92 215 182 538 345 268 136 348 201 370 304
8 42 -17 140 -55 212 -31 57 -211 273 -437 524 l-125 138 28 42 c153 234 398
507 530 592 133 87 202 64 400 -134 122 -121 248 -281 393 -496 59 -88 112
-169 118 -179 10 -19 12 -19 39 -2 23 13 21 11 -6 -11 -75 -61 -199 -170 -265
-234 l-70 -68 -170 9 c-220 12 -315 16 -315 12 0 -2 49 -55 110 -117 60 -63
128 -142 150 -176 37 -58 40 -67 40 -136 0 -41 -6 -89 -14 -108 -24 -57 -103
-131 -225 -211 -159 -105 -224 -163 -256 -229 -60 -129 -5 -274 143 -373 31
-21 138 -80 237 -131 281 -146 354 -201 407 -308 28 -57 32 -75 32 -147 0
-222 -133 -400 -458 -613 -89 -58 -210 -139 -271 -178 -295 -195 -415 -356
-415 -556 0 -120 77 -271 191 -373 203 -183 574 -342 1109 -476 250 -63 625
-128 1090 -189 112 -15 456 -50 705 -71 202 -18 221 -18 230 -3 6 9 40 51 76
93 527 619 860 1377 954 2170 25 209 30 619 11 829 -9 96 -21 191 -26 210 -5
20 -21 99 -35 176 -119 648 -407 1279 -820 1795 -672 839 -1673 1384 -2745
1494 -148 15 -493 27 -610 20z m590 -169 c944 -103 1760 -500 2415 -1176 422
-435 722 -937 910 -1518 38 -121 99 -355 111 -430 l7 -44 -34 25 c-127 95
-552 318 -779 408 -244 97 -615 218 -789 256 l-83 19 -92 140 c-140 213 -227
326 -334 434 -122 123 -190 163 -274 162 -75 -1 -184 -43 -289 -112 -44 -28
-81 -50 -83 -48 -2 2 -51 76 -110 163 -277 412 -518 674 -682 742 -57 24 -135
20 -202 -11 -150 -69 -364 -283 -567 -570 -43 -60 -80 -112 -82 -114 -2 -3
-49 40 -106 95 -407 398 -781 624 -1031 624 -325 0 -748 -526 -1183 -1470 -55
-118 -115 -253 -134 -299 l-34 -84 -90 -41 c-188 -84 -459 -230 -619 -333 -54
-35 -101 -62 -104 -58 -10 9 46 267 92 429 121 419 286 770 537 1141 257 380
652 769 1046 1031 553 367 1183 590 1823 644 69 6 145 12 170 14 92 8 450 -4
590 -19z m-1966 -1085 c246 -63 622 -346 1034 -781 174 -184 312 -338 312
-350 0 -5 -39 -9 -88 -9 -306 0 -932 -71 -1337 -151 -388 -78 -933 -237 -1209
-354 -21 -9 -40 -14 -42 -12 -7 7 107 260 221 492 284 576 581 994 798 1124
105 64 183 74 311 41z m3107 -769 c61 -39 182 -167 266 -281 98 -133 187 -269
181 -276 -3 -3 -89 10 -189 30 -213 40 -559 89 -803 114 l-170 17 100 89 c189
169 338 270 469 317 69 25 94 23 146 -10z"/>
</g>
</svg>
