<?xml version="1.0" standalone="no"?>
<!DOCTYPE svg PUBLIC "-//W3C//DTD SVG 20010904//EN"
 "http://www.w3.org/TR/2001/REC-SVG-20010904/DTD/svg10.dtd">
<svg version="1.0" xmlns="http://www.w3.org/2000/svg"
 width="200.000000pt" height="200.000000pt" viewBox="0 0 200.000000 200.000000"
 preserveAspectRatio="xMidYMid meet">
<metadata>
Created by potrace 1.15, written by Peter Selinger 2001-2017
</metadata>
<g transform="translate(0.000000,200.000000) scale(0.100000,-0.100000)"
fill="#fd7400" stroke="none">
<path d="M812 1970 c-202 -54 -375 -202 -473 -406 -62 -127 -81 -217 -82 -369
0 -113 3 -141 27 -220 51 -168 173 -381 327 -572 84 -104 369 -393 387 -393
22 0 239 217 354 354 291 346 417 644 387 916 -34 312 -226 569 -503 673 -73
27 -95 31 -216 34 -110 2 -148 -1 -208 -17z m331 -454 c71 -34 139 -110 167
-184 17 -44 21 -73 18 -132 -6 -128 -70 -225 -185 -282 -125 -61 -264 -40
-372 57 -62 56 -104 149 -104 233 -1 96 25 163 93 235 76 80 146 109 251 104
58 -3 90 -10 132 -31z"/>
</g>
</svg>
